<svg xmlns="http://www.w3.org/2000/svg" viewBox="0 0 1084.06 1059.04"><defs><style>.cls-1,.cls-3{fill:none;stroke:#fff;stroke-miterlimit:10;}.cls-2{fill:#fff;}.cls-3,.cls-4{opacity:0.81;}</style></defs><g id="Layer_2" data-name="Layer 2"><g id="Layer_1-2" data-name="Layer 1"><polyline class="cls-1" points="51.29 1058.54 153 1058.54 203.85 970.46 153 882.38 51.29 882.38 0.43 970.46"/><polyline class="cls-1" points="354.36 879.28 305.29 794.29 203.58 794.29 152.72 882.38 203.58 970.46 301.72 970.46"/><path class="cls-2" d="M357.52,877.24a3.76,3.76,0,1,1-5.14-1.38A3.76,3.76,0,0,1,357.52,877.24Z"/><circle class="cls-2" cx="301.53" cy="970.46" r="3.76"/><polyline class="cls-1" points="152.72 706.21 203.58 794.29 305.29 794.29 356.14 706.21 305.29 618.12 203.58 618.12"/><polyline class="cls-3" points="355.58 530.04 304.72 618.12 355.58 706.21 457.29 706.21 508.14 618.12 457.29 530.04"/><g class="cls-4"><polyline class="cls-1" points="307.07 615.03 356.14 530.04 305.29 441.96 203.58 441.96 152.72 530.04 201.79 615.03"/><path class="cls-2" d="M310.42,616.75a3.76,3.76,0,1,1-1.37-5.14A3.75,3.75,0,0,1,310.42,616.75Z"/><path class="cls-2" d="M198.44,616.75a3.76,3.76,0,1,0,1.38-5.14A3.76,3.76,0,0,0,198.44,616.75Z"/></g><polyline class="cls-1" points="660.03 531.15 609.18 443.07 507.47 443.07 456.61 531.15 507.47 619.24 609.18 619.24"/><polyline class="cls-1" points="662.04 531.15 760.18 531.15 811.03 443.07 761.96 358.08"/><circle class="cls-2" cx="662.23" cy="531.15" r="3.76"/><path class="cls-2" d="M765.31,356.36a3.76,3.76,0,1,0-1.37,5.14A3.76,3.76,0,0,0,765.31,356.36Z"/><line class="cls-1" x1="656.68" y1="358.08" x2="609.4" y2="439.97"/><path class="cls-2" d="M653.33,356.36a3.76,3.76,0,1,1,1.38,5.14A3.77,3.77,0,0,1,653.33,356.36Z"/><path class="cls-2" d="M606.24,437.93a3.76,3.76,0,1,0,5.13-1.37A3.76,3.76,0,0,0,606.24,437.93Z"/><polyline class="cls-1" points="660.03 354.98 609.18 266.9 507.47 266.9 456.61 354.98"/><line class="cls-1" x1="507.47" y1="443.07" x2="609.18" y2="443.07"/><polyline class="cls-3" points="760.18 354.98 811.03 266.9 760.18 178.82 658.47 178.82 607.61 266.9"/><polyline class="cls-1" points="913.07 266.9 811.36 266.9 760.5 354.98 811.36 443.07 913.07 443.07 963.92 354.98"/><polyline class="cls-1" points="756.61 3.76 658.47 3.76 607.61 91.84 656.68 176.83"/><path class="cls-2" d="M756.42,0a3.76,3.76,0,1,1-3.76,3.76A3.76,3.76,0,0,1,756.42,0Z"/><path class="cls-2" d="M653.33,178.55a3.76,3.76,0,1,0,1.38-5.13A3.76,3.76,0,0,0,653.33,178.55Z"/><line class="cls-1" x1="760.18" y1="179.93" x2="811.03" y2="91.84"/><polyline class="cls-1" points="457.29 178.82 355.58 178.82 304.72 266.9 355.58 354.98 457.29 354.98 508.14 266.9"/><polyline class="cls-1" points="307.07 262.7 356.14 177.71 305.29 89.62 203.58 89.62 152.72 177.71 201.79 262.7"/><path class="cls-2" d="M310.42,264.41a3.76,3.76,0,1,1-1.37-5.13A3.75,3.75,0,0,1,310.42,264.41Z"/><path class="cls-2" d="M198.44,264.41a3.76,3.76,0,1,0,1.38-5.13A3.76,3.76,0,0,0,198.44,264.41Z"/><polyline class="cls-1" points="205.25 441.96 154.4 353.87 52.69 353.87"/><line class="cls-1" x1="52.69" y1="530.04" x2="154.4" y2="530.04"/><polyline class="cls-1" points="1083.56 848.91 995.48 899.77 995.48 1001.48 1083.56 1052.33"/><polyline class="cls-1" points="907.4 850.48 995.48 901.33 1083.56 850.48 1083.56 748.77 995.48 697.91 907.4 748.77"/><path class="cls-2" d="M907.4,850.07l87.08,50.28V1000.9l-87.08,50.28-87.09-50.28V900.35l87.09-50.28m0-1.16-88.09,50.86v101.71l88.09,50.85,88.08-50.85V899.77L907.4,848.91Z"/><polyline class="cls-1" points="907.4 748.77 819.31 697.91 731.23 748.77 731.23 850.48 819.31 901.33 907.4 850.48"/><polyline class="cls-1" points="819.31 595.88 819.31 697.59 907.4 748.45 995.48 697.59 995.48 595.88 907.4 545.02"/><polyline class="cls-1" points="556.17 748.77 556.17 850.48 644.26 901.33 732.34 850.48"/><line class="cls-1" x1="732.34" y1="748.77" x2="644.26" y2="697.91"/><line class="cls-1" x1="907.4" y1="1051.66" x2="819.31" y2="1000.8"/></g></g></svg>