<svg xmlns="http://www.w3.org/2000/svg" viewBox="0 0 1701.48 1082.63"><defs><style>.cls-1,.cls-2{fill:none;stroke:#fff;stroke-miterlimit:10;}.cls-2,.cls-3{opacity:0.75;}.cls-4{fill:#fff;}</style></defs><g id="Layer_2" data-name="Layer 2"><g id="Layer_1-2" data-name="Layer 1"><polygon class="cls-1" points="32.7 982.44 0.5 1006.59 0.5 1046.84 32.7 1022.69 32.7 982.44"/><polygon class="cls-2" points="32.7 942.35 0.5 966.5 0.5 1006.75 32.7 982.6 32.7 942.35"/><polyline class="cls-2" points="64.9 958.78 64.9 918.53 32.7 942.68 32.7 982.93"/><polygon class="cls-2" points="65.87 918.53 98.07 942.68 98.07 982.93 65.87 958.78 65.87 918.53"/><polygon class="cls-2" points="99.05 943.38 131.25 967.53 131.25 1007.78 99.05 983.63 99.05 943.38"/><polygon class="cls-2" points="99.05 902.18 131.25 926.33 131.25 966.58 99.05 942.43 99.05 902.18"/><g class="cls-3"><polyline class="cls-1" points="100.47 862.86 131.25 885.94 131.25 926.19 99.05 902.04 99.05 863.58"/><path class="cls-4" d="M99.42,864.42a1.88,1.88,0,1,1,2.63-.37A1.87,1.87,0,0,1,99.42,864.42Z"/><circle class="cls-4" cx="99.05" cy="863.67" r="1.88"/></g><polyline class="cls-2" points="65.87 837.64 65.87 797.39 98.07 821.54 98.07 861.79"/><polygon class="cls-2" points="65.87 757.08 98.07 781.23 98.07 821.48 65.87 797.33 65.87 757.08"/><polygon class="cls-2" points="98.07 741.03 130.27 765.18 130.27 805.43 98.07 781.28 98.07 741.03"/><g class="cls-3"><polyline class="cls-1" points="67.3 717.91 98.07 740.99 98.07 781.24 65.87 757.09 65.87 718.63"/><path class="cls-4" d="M66.25,719.48a1.89,1.89,0,0,1-.38-2.64,1.88,1.88,0,1,1,.38,2.64Z"/><circle class="cls-4" cx="65.87" cy="718.72" r="1.88"/></g><g class="cls-3"><polyline class="cls-1" points="31.27 903.25 0.5 926.33 0.5 966.58 31.27 943.5"/><path class="cls-4" d="M30.07,901.8a1.88,1.88,0,1,1-.38,2.63A1.88,1.88,0,0,1,30.07,901.8Z"/><path class="cls-4" d="M32.32,945.06a1.88,1.88,0,1,0-2.63-.38A1.88,1.88,0,0,0,32.32,945.06Z"/></g><g class="cls-3"><polyline class="cls-1" points="34.13 780.17 64.9 757.09 64.9 716.84 34.13 739.92"/><path class="cls-4" d="M35.33,781.62a1.88,1.88,0,1,1,.38-2.63A1.88,1.88,0,0,1,35.33,781.62Z"/><path class="cls-4" d="M33.08,738.36a1.88,1.88,0,1,0,2.63.38A1.87,1.87,0,0,0,33.08,738.36Z"/></g><polyline class="cls-2" points="163.44 741.03 131.25 765.18 131.25 805.43 163.44 781.28"/><polygon class="cls-2" points="163.44 700.93 131.25 725.08 131.25 765.33 163.44 741.18 163.44 700.93"/><polygon class="cls-2" points="195.65 677.12 163.44 701.27 163.44 741.51 195.65 717.37 195.65 677.12"/><polygon class="cls-2" points="196.62 677.12 228.82 701.27 228.82 741.51 196.62 717.37 196.62 677.12"/><polygon class="cls-2" points="229.79 701.96 261.99 726.11 261.99 766.36 229.79 742.21 229.79 701.96"/><g class="cls-3"><polyline class="cls-1" points="231.22 661.83 261.99 684.91 261.99 725.16 231.22 702.08"/><path class="cls-4" d="M230.17,663.39a1.88,1.88,0,1,1,2.63-.37A1.88,1.88,0,0,1,230.17,663.39Z"/><path class="cls-4" d="M232.42,700.63a1.88,1.88,0,1,0,.38,2.64A1.88,1.88,0,0,0,232.42,700.63Z"/></g><polygon class="cls-2" points="229.79 620.38 261.99 644.52 261.99 684.77 229.79 660.63 229.79 620.38"/><g class="cls-3"><polyline class="cls-1" points="198.05 557.05 228.82 580.13 228.82 620.38 198.05 597.3"/><path class="cls-4" d="M197,558.61a1.88,1.88,0,1,1,2.64-.38A1.88,1.88,0,0,1,197,558.61Z"/><path class="cls-4" d="M199.25,595.85a1.88,1.88,0,1,0,.38,2.63A1.88,1.88,0,0,0,199.25,595.85Z"/></g><polygon class="cls-2" points="196.62 515.67 228.82 539.82 228.82 580.07 196.62 555.92 196.62 515.67"/><g class="cls-3"><polyline class="cls-1" points="261.02 525.55 261.02 564.01 228.82 539.86 228.82 501.4"/><path class="cls-4" d="M259.14,525.64a1.88,1.88,0,1,1,1.88,1.88A1.88,1.88,0,0,1,259.14,525.64Z"/><circle class="cls-4" cx="228.82" cy="501.49" r="1.88"/></g><polyline class="cls-2" points="196.62 475.43 228.82 499.58 228.82 539.83 196.62 515.68"/><polyline class="cls-2" points="131.25 475.43 163.44 499.58 163.44 539.83 131.25 515.68"/><polyline class="cls-2" points="131.25 684.91 131.25 725.16 163.44 701.01 163.44 660.76"/><polygon class="cls-2" points="195.65 475.43 163.44 499.58 163.44 539.83 195.65 515.68 195.65 475.43"/><polygon class="cls-2" points="163.44 410.43 131.25 434.58 131.25 474.83 163.44 450.68 163.44 410.43"/><polygon class="cls-2" points="261.99 966.53 229.79 990.68 229.79 1030.93 261.99 1006.78 261.99 966.53"/><polygon class="cls-2" points="261.99 926.44 229.79 950.59 229.79 990.84 261.99 966.69 261.99 926.44"/><g class="cls-3"><polyline class="cls-1" points="292.76 903.7 261.99 926.77 261.99 967.02 294.19 942.87 294.19 904.41"/><path class="cls-4" d="M291.56,902.25a1.87,1.87,0,0,1,2.63.37,1.88,1.88,0,1,1-2.63-.37Z"/><circle class="cls-4" cx="294.19" cy="904.5" r="1.88"/></g><polygon class="cls-2" points="295.17 902.62 327.37 926.77 327.37 967.02 295.17 942.87 295.17 902.62"/><polygon class="cls-2" points="328.34 927.47 360.54 951.62 360.54 991.87 328.34 967.72 328.34 927.47"/><g class="cls-3"><polyline class="cls-1" points="329.77 887.34 360.54 910.42 360.54 950.67 328.34 926.52 328.34 888.05"/><path class="cls-4" d="M328.71,888.9a1.88,1.88,0,1,1,2.64-.38A1.88,1.88,0,0,1,328.71,888.9Z"/><circle class="cls-4" cx="328.34" cy="888.15" r="1.88"/></g><polygon class="cls-2" points="328.34 845.88 360.54 870.03 360.54 910.28 328.34 886.13 328.34 845.88"/><polyline class="cls-2" points="295.17 781.48 327.37 805.63 327.37 845.88 295.17 821.73"/><polygon class="cls-2" points="295.17 741.17 327.37 765.32 327.37 805.57 295.17 781.42 295.17 741.17"/><polyline class="cls-2" points="327.37 765.37 327.37 725.12 359.56 749.27 359.56 789.52"/><polygon class="cls-2" points="295.17 700.93 327.37 725.08 327.37 765.33 295.17 741.18 295.17 700.93"/><polygon class="cls-2" points="261.99 886.27 229.79 910.42 229.79 950.67 261.99 926.52 261.99 886.27"/><polyline class="cls-2" points="261.99 725.08 261.99 765.33 294.19 741.18 294.19 700.93"/><polygon class="cls-2" points="458.11 572.03 490.31 547.88 490.31 507.63 458.11 531.78 458.11 572.03"/><polygon class="cls-2" points="458.11 612.12 490.31 587.97 490.31 547.72 458.11 571.87 458.11 612.12"/><polyline class="cls-2" points="425.91 635.94 458.11 611.79 458.11 571.54 425.91 595.69"/><polygon class="cls-2" points="424.94 635.94 392.74 611.79 392.74 571.54 424.94 595.69 424.94 635.94"/><polygon class="cls-2" points="391.76 611.09 359.56 586.94 359.56 546.69 391.76 570.84 391.76 611.09"/><g class="cls-3"><polyline class="cls-1" points="390.33 651.22 359.56 628.14 359.56 587.89 391.76 612.04 391.76 650.51"/><path class="cls-4" d="M391.39,649.66a1.88,1.88,0,1,1-2.63.38A1.87,1.87,0,0,1,391.39,649.66Z"/><circle class="cls-4" cx="391.76" cy="650.41" r="1.88"/></g><polygon class="cls-2" points="391.76 692.68 359.56 668.53 359.56 628.28 391.76 652.43 391.76 692.68"/><polyline class="cls-2" points="392.74 692.68 424.94 716.83 424.94 757.08 392.74 732.93"/><polygon class="cls-2" points="424.94 797.38 392.74 773.24 392.74 732.99 424.94 757.14 424.94 797.38"/><polygon class="cls-2" points="392.74 813.44 360.54 789.29 360.54 749.04 392.74 773.19 392.74 813.44"/><polygon class="cls-2" points="424.94 837.63 392.74 813.48 392.74 773.23 424.94 797.38 424.94 837.63"/><g class="cls-3"><polyline class="cls-1" points="488.88 588.97 458.11 612.04 458.11 652.29 488.88 629.22"/><path class="cls-4" d="M487.68,587.52a1.88,1.88,0,1,1-.38,2.63A1.88,1.88,0,0,1,487.68,587.52Z"/><path class="cls-4" d="M489.93,630.77a1.88,1.88,0,1,0-2.63-.37A1.88,1.88,0,0,0,489.93,630.77Z"/></g><polygon class="cls-2" points="425.91 837.63 458.11 813.48 458.11 773.23 425.91 797.38 425.91 837.63"/><polygon class="cls-1" points="523.38 482.83 491.18 506.98 491.18 547.23 523.38 523.08 523.38 482.83"/><polygon class="cls-2" points="523.38 442.74 491.18 466.89 491.18 507.14 523.38 482.99 523.38 442.74"/><polyline class="cls-2" points="555.58 459.17 555.58 418.92 523.38 443.07 523.38 483.32"/><polygon class="cls-2" points="556.56 418.92 588.76 443.07 588.76 483.32 556.56 459.17 556.56 418.92"/><polygon class="cls-2" points="589.73 443.77 621.93 467.92 621.93 508.17 589.73 484.02 589.73 443.77"/><polygon class="cls-2" points="589.73 402.56 621.93 426.71 621.93 466.96 589.73 442.81 589.73 402.56"/><g class="cls-3"><polyline class="cls-1" points="591.16 363.25 621.93 386.33 621.93 426.58 589.73 402.43 589.73 363.97"/><path class="cls-4" d="M590.11,364.81a1.88,1.88,0,1,1,2.63-.37A1.88,1.88,0,0,1,590.11,364.81Z"/><circle class="cls-4" cx="589.73" cy="364.06" r="1.88"/></g><polyline class="cls-2" points="556.56 338.03 556.56 297.78 588.76 321.93 588.76 362.18"/><polygon class="cls-2" points="556.56 257.47 588.76 281.62 588.76 321.87 556.56 297.72 556.56 257.47"/><polygon class="cls-2" points="588.76 241.42 620.96 265.57 620.96 305.81 588.76 281.67 588.76 241.42"/><g class="cls-3"><polyline class="cls-1" points="557.99 218.3 588.76 241.38 588.76 281.63 556.56 257.48 556.56 219.02"/><path class="cls-4" d="M556.93,219.86a1.88,1.88,0,1,1,2.63-.37A1.87,1.87,0,0,1,556.93,219.86Z"/><circle class="cls-4" cx="556.56" cy="219.11" r="1.88"/></g><g class="cls-3"><polyline class="cls-1" points="521.96 403.64 491.18 426.71 491.18 466.96 521.96 443.89"/><path class="cls-4" d="M520.75,402.19a1.88,1.88,0,1,1-.37,2.63A1.87,1.87,0,0,1,520.75,402.19Z"/><path class="cls-4" d="M523,445.45a1.88,1.88,0,1,0-2.63-.38A1.88,1.88,0,0,0,523,445.45Z"/></g><g class="cls-3"><polyline class="cls-1" points="524.81 280.56 555.58 257.48 555.58 217.23 524.81 240.31"/><path class="cls-4" d="M526,282a1.88,1.88,0,1,1,.37-2.63A1.89,1.89,0,0,1,526,282Z"/><path class="cls-4" d="M523.76,238.75a1.88,1.88,0,1,0,2.63.38A1.88,1.88,0,0,0,523.76,238.75Z"/></g><polyline class="cls-2" points="654.13 241.42 621.93 265.57 621.93 305.81 654.13 281.67"/><polygon class="cls-2" points="654.13 201.32 621.93 225.47 621.93 265.72 654.13 241.57 654.13 201.32"/><polygon class="cls-2" points="686.33 177.5 654.13 201.66 654.13 241.9 686.33 217.75 686.33 177.5"/><polygon class="cls-2" points="687.3 177.5 719.5 201.66 719.5 241.9 687.3 217.75 687.3 177.5"/><polygon class="cls-2" points="720.48 202.35 752.68 226.5 752.68 266.75 720.48 242.6 720.48 202.35"/><g class="cls-3"><polyline class="cls-1" points="721.9 162.22 752.68 185.3 752.68 225.55 721.9 202.47"/><path class="cls-4" d="M720.85,163.78a1.88,1.88,0,1,1,2.63-.37A1.87,1.87,0,0,1,720.85,163.78Z"/><path class="cls-4" d="M723.11,201a1.88,1.88,0,1,0,.37,2.63A1.88,1.88,0,0,0,723.11,201Z"/></g><polygon class="cls-2" points="720.48 120.77 752.68 144.91 752.68 185.16 720.48 161.01 720.48 120.77"/><g class="cls-3"><polyline class="cls-1" points="688.73 57.44 719.5 80.52 719.5 120.77 688.73 97.69"/><path class="cls-4" d="M687.68,59a1.88,1.88,0,1,1,2.63-.38A1.88,1.88,0,0,1,687.68,59Z"/><path class="cls-4" d="M689.93,96.24a1.88,1.88,0,1,0,.38,2.63A1.88,1.88,0,0,0,689.93,96.24Z"/></g><polygon class="cls-2" points="687.3 16.06 719.5 40.21 719.5 80.46 687.3 56.31 687.3 16.06"/><g class="cls-3"><polyline class="cls-1" points="751.7 25.94 751.7 64.4 719.5 40.25 719.5 1.79"/><circle class="cls-4" cx="751.7" cy="26.03" r="1.88"/><circle class="cls-4" cx="719.5" cy="1.88" r="1.88"/></g><polyline class="cls-2" points="621.93 185.3 621.93 225.55 654.13 201.4 654.13 161.15"/><polygon class="cls-2" points="752.68 466.92 720.48 491.07 720.48 531.32 752.68 507.17 752.68 466.92"/><polygon class="cls-2" points="752.68 426.83 720.48 450.98 720.48 491.23 752.68 467.08 752.68 426.83"/><g class="cls-3"><polyline class="cls-1" points="783.45 404.08 752.68 427.16 752.68 467.41 784.88 443.26 784.88 404.8"/><path class="cls-4" d="M782.24,402.64a1.88,1.88,0,1,1-.37,2.63A1.88,1.88,0,0,1,782.24,402.64Z"/><circle class="cls-4" cx="784.88" cy="404.89" r="1.88"/></g><polygon class="cls-2" points="785.85 403.01 818.05 427.16 818.05 467.41 785.85 443.26 785.85 403.01"/><polygon class="cls-2" points="819.02 427.86 851.22 452.01 851.22 492.26 819.02 468.11 819.02 427.86"/><g class="cls-3"><polyline class="cls-1" points="820.45 387.73 851.22 410.81 851.22 451.06 819.02 426.9 819.02 388.44"/><path class="cls-4" d="M819.4,389.29a1.88,1.88,0,1,1,2.63-.38A1.88,1.88,0,0,1,819.4,389.29Z"/><circle class="cls-4" cx="819.02" cy="388.54" r="1.88"/></g><polygon class="cls-2" points="819.02 346.27 851.22 370.42 851.22 410.67 819.02 386.52 819.02 346.27"/><polyline class="cls-2" points="785.85 281.87 818.05 306.02 818.05 346.27 785.85 322.12"/><polygon class="cls-2" points="785.85 241.56 818.05 265.71 818.05 305.96 785.85 281.81 785.85 241.56"/><polyline class="cls-2" points="818.05 265.76 818.05 225.51 850.25 249.66 850.25 289.91"/><polygon class="cls-2" points="785.85 201.32 818.05 225.47 818.05 265.72 785.85 241.57 785.85 201.32"/><polygon class="cls-2" points="752.68 386.66 720.48 410.81 720.48 451.06 752.68 426.9 752.68 386.66"/><polyline class="cls-2" points="752.68 225.47 752.68 265.72 784.88 241.57 784.88 201.32"/><polygon class="cls-2" points="948.79 72.42 980.99 48.27 980.99 8.02 948.79 32.17 948.79 72.42"/><polygon class="cls-2" points="948.79 112.51 980.99 88.36 980.99 48.11 948.79 72.26 948.79 112.51"/><polyline class="cls-2" points="916.6 136.33 948.79 112.18 948.79 71.93 916.6 96.08"/><polygon class="cls-2" points="915.62 136.33 883.42 112.18 883.42 71.93 915.62 96.08 915.62 136.33"/><polygon class="cls-2" points="882.45 111.48 850.25 87.33 850.25 47.08 882.45 71.23 882.45 111.48"/><g class="cls-3"><polyline class="cls-1" points="881.02 151.61 850.25 128.53 850.25 88.28 882.45 112.43 882.45 150.9"/><path class="cls-4" d="M882.07,150.05a1.88,1.88,0,1,1-2.63.38A1.88,1.88,0,0,1,882.07,150.05Z"/><circle class="cls-4" cx="882.45" cy="150.8" r="1.88"/></g><polygon class="cls-2" points="882.45 193.07 850.25 168.92 850.25 128.67 882.45 152.82 882.45 193.07"/><polyline class="cls-2" points="883.42 193.07 915.62 217.22 915.62 257.46 883.42 233.32"/><polygon class="cls-2" points="915.62 297.77 883.42 273.62 883.42 233.38 915.62 257.52 915.62 297.77"/><polygon class="cls-2" points="883.42 313.83 851.22 289.68 851.22 249.43 883.42 273.58 883.42 313.83"/><polygon class="cls-2" points="915.62 338.01 883.42 313.87 883.42 273.62 915.62 297.76 915.62 338.01"/><g class="cls-3"><polyline class="cls-1" points="979.57 89.35 948.79 112.43 948.79 152.68 979.57 129.6"/><path class="cls-4" d="M978.36,87.91a1.88,1.88,0,1,1-.37,2.63A1.87,1.87,0,0,1,978.36,87.91Z"/><path class="cls-4" d="M980.62,131.16a1.88,1.88,0,1,0-2.63-.37A1.87,1.87,0,0,0,980.62,131.16Z"/></g><polygon class="cls-2" points="916.6 338.01 948.79 313.87 948.79 273.62 916.6 297.76 916.6 338.01"/><polygon class="cls-1" points="753.65 999.91 721.45 1024.06 721.45 1064.31 753.65 1040.16 753.65 999.91"/><polygon class="cls-2" points="753.65 959.82 721.45 983.97 721.45 1024.21 753.65 1000.07 753.65 959.82"/><polyline class="cls-2" points="785.85 976.25 785.85 936 753.65 960.15 753.65 1000.4"/><polygon class="cls-2" points="786.82 936 819.02 960.15 819.02 1000.4 786.82 976.25 786.82 936"/><polygon class="cls-2" points="820 960.85 852.2 984.99 852.2 1025.24 820 1001.09 820 960.85"/><polygon class="cls-2" points="820 919.64 852.2 943.79 852.2 984.04 820 959.89 820 919.64"/><g class="cls-3"><polyline class="cls-1" points="821.42 880.33 852.2 903.41 852.2 943.66 820 919.51 820 881.04"/><circle class="cls-4" cx="821.5" cy="880.39" r="1.88" transform="translate(-116.25 125.03) rotate(-8.13)"/><circle class="cls-4" cx="820" cy="881.14" r="1.88"/></g><polyline class="cls-2" points="786.82 855.11 786.82 814.86 819.02 839.01 819.02 879.26"/><polygon class="cls-2" points="786.82 774.55 819.02 798.7 819.02 838.95 786.82 814.8 786.82 774.55"/><polygon class="cls-2" points="819.02 758.49 851.22 782.64 851.22 822.89 819.02 798.74 819.02 758.49"/><g class="cls-3"><polyline class="cls-1" points="788.25 735.38 819.02 758.46 819.02 798.71 786.82 774.56 786.82 736.1"/><path class="cls-4" d="M787.2,736.94a1.88,1.88,0,1,1,2.63-.37A1.88,1.88,0,0,1,787.2,736.94Z"/><circle class="cls-4" cx="786.82" cy="736.19" r="1.88"/></g><g class="cls-3"><polyline class="cls-1" points="752.22 920.71 721.45 943.79 721.45 984.04 752.22 960.96"/><path class="cls-4" d="M751,919.27a1.88,1.88,0,1,1-.38,2.63A1.87,1.87,0,0,1,751,919.27Z"/><path class="cls-4" d="M753.27,962.52a1.88,1.88,0,1,0-2.63-.37A1.88,1.88,0,0,0,753.27,962.52Z"/></g><g class="cls-3"><polyline class="cls-1" points="755.08 797.64 785.85 774.56 785.85 734.31 755.08 757.39"/><path class="cls-4" d="M756.28,799.08a1.88,1.88,0,1,1,.38-2.63A1.87,1.87,0,0,1,756.28,799.08Z"/><path class="cls-4" d="M754,755.83a1.88,1.88,0,1,0,2.63.37A1.88,1.88,0,0,0,754,755.83Z"/></g><polyline class="cls-2" points="884.4 758.49 852.2 782.64 852.2 822.89 884.4 798.74"/><polygon class="cls-2" points="884.4 718.4 852.2 742.55 852.2 782.8 884.4 758.65 884.4 718.4"/><polygon class="cls-2" points="916.6 694.58 884.4 718.73 884.4 758.98 916.6 734.83 916.6 694.58"/><polygon class="cls-2" points="917.57 694.58 949.77 718.73 949.77 758.98 917.57 734.83 917.57 694.58"/><polygon class="cls-2" points="950.74 719.43 982.94 743.58 982.94 783.83 950.74 759.68 950.74 719.43"/><g class="cls-3"><polyline class="cls-1" points="952.17 679.3 982.94 702.38 982.94 742.63 952.17 719.55"/><path class="cls-4" d="M951.12,680.86a1.88,1.88,0,1,1,2.63-.38A1.88,1.88,0,0,1,951.12,680.86Z"/><path class="cls-4" d="M953.37,718.1a1.88,1.88,0,1,0,.38,2.63A1.87,1.87,0,0,0,953.37,718.1Z"/></g><polygon class="cls-2" points="950.74 637.84 982.94 661.99 982.94 702.24 950.74 678.09 950.74 637.84"/><g class="cls-3"><polyline class="cls-1" points="919 574.51 949.77 597.59 949.77 637.84 919 614.76"/><path class="cls-4" d="M918,576.07a1.88,1.88,0,1,1,2.63-.37A1.87,1.87,0,0,1,918,576.07Z"/><path class="cls-4" d="M920.2,613.32a1.88,1.88,0,1,0,.38,2.63A1.87,1.87,0,0,0,920.2,613.32Z"/></g><polygon class="cls-2" points="917.57 533.13 949.77 557.28 949.77 597.53 917.57 573.38 917.57 533.13"/><g class="cls-3"><polyline class="cls-1" points="981.97 543.01 981.97 581.48 949.77 557.33 949.77 518.86"/><circle class="cls-4" cx="981.97" cy="543.11" r="1.88"/><circle class="cls-4" cx="949.77" cy="518.96" r="1.88"/></g><polyline class="cls-2" points="917.57 492.89 949.77 517.04 949.77 557.29 917.57 533.14"/><polyline class="cls-2" points="852.2 492.89 884.4 517.04 884.4 557.29 852.2 533.14"/><polyline class="cls-2" points="852.2 702.38 852.2 742.63 884.4 718.48 884.4 678.23"/><polygon class="cls-2" points="916.6 492.89 884.4 517.04 884.4 557.29 916.6 533.14 916.6 492.89"/><polygon class="cls-2" points="884.4 427.9 852.2 452.05 852.2 492.3 884.4 468.15 884.4 427.9"/><polygon class="cls-2" points="982.94 984 950.74 1008.15 950.74 1048.4 982.94 1024.25 982.94 984"/><polygon class="cls-2" points="982.94 943.91 950.74 968.06 950.74 1008.31 982.94 984.16 982.94 943.91"/><g class="cls-3"><polyline class="cls-1" points="1013.71 921.16 982.94 944.24 982.94 984.49 1015.14 960.34 1015.14 921.88"/><path class="cls-4" d="M1012.51,919.71a1.88,1.88,0,1,1-.38,2.63A1.88,1.88,0,0,1,1012.51,919.71Z"/><circle class="cls-4" cx="1015.14" cy="921.97" r="1.88"/></g><polygon class="cls-2" points="1016.12 920.09 1048.32 944.24 1048.32 984.49 1016.12 960.34 1016.12 920.09"/><polygon class="cls-2" points="1049.29 944.94 1081.49 969.09 1081.49 1009.33 1049.29 985.18 1049.29 944.94"/><g class="cls-3"><polyline class="cls-1" points="1050.72 904.8 1081.49 927.88 1081.49 968.13 1049.29 943.98 1049.29 905.52"/><path class="cls-4" d="M1049.67,906.36a1.88,1.88,0,1,1,2.63-.37A1.87,1.87,0,0,1,1049.67,906.36Z"/><circle class="cls-4" cx="1049.29" cy="905.61" r="1.88"/></g><polygon class="cls-2" points="1049.29 863.35 1081.49 887.5 1081.49 927.75 1049.29 903.6 1049.29 863.35"/><polyline class="cls-2" points="1016.12 798.95 1048.32 823.1 1048.32 863.35 1016.12 839.2"/><polygon class="cls-2" points="1016.12 758.64 1048.32 782.79 1048.32 823.04 1016.12 798.89 1016.12 758.64"/><polyline class="cls-2" points="1048.32 782.83 1048.32 742.58 1080.51 766.73 1080.51 806.98"/><polygon class="cls-2" points="1016.12 718.4 1048.32 742.55 1048.32 782.8 1016.12 758.65 1016.12 718.4"/><polygon class="cls-2" points="982.94 903.73 950.74 927.88 950.74 968.13 982.94 943.98 982.94 903.73"/><polyline class="cls-2" points="982.94 742.55 982.94 782.8 1015.14 758.65 1015.14 718.4"/><polygon class="cls-2" points="1179.06 589.49 1211.26 565.34 1211.26 525.09 1179.06 549.24 1179.06 589.49"/><polygon class="cls-2" points="1179.06 629.58 1211.26 605.43 1211.26 565.18 1179.06 589.34 1179.06 629.58"/><polyline class="cls-2" points="1146.86 653.4 1179.06 629.25 1179.06 589 1146.86 613.15"/><polygon class="cls-2" points="1145.89 653.4 1113.69 629.25 1113.69 589 1145.89 613.15 1145.89 653.4"/><polygon class="cls-2" points="1112.71 628.55 1080.51 604.41 1080.51 564.16 1112.71 588.31 1112.71 628.55"/><g class="cls-3"><polyline class="cls-1" points="1111.29 668.69 1080.51 645.61 1080.51 605.36 1112.71 629.51 1112.71 667.97"/><path class="cls-4" d="M1112.34,667.13a1.88,1.88,0,1,1-2.63.37A1.87,1.87,0,0,1,1112.34,667.13Z"/><circle class="cls-4" cx="1112.71" cy="667.88" r="1.88"/></g><polygon class="cls-2" points="1112.71 710.14 1080.51 685.99 1080.51 645.74 1112.71 669.89 1112.71 710.14"/><polyline class="cls-2" points="1113.69 710.14 1145.89 734.29 1145.89 774.54 1113.69 750.39"/><polygon class="cls-2" points="1145.89 814.85 1113.69 790.7 1113.69 750.45 1145.89 774.6 1145.89 814.85"/><polygon class="cls-2" points="1113.69 830.91 1081.49 806.76 1081.49 766.51 1113.69 790.66 1113.69 830.91"/><polygon class="cls-2" points="1145.89 855.09 1113.69 830.94 1113.69 790.69 1145.89 814.84 1145.89 855.09"/><g class="cls-3"><polyline class="cls-1" points="1209.83 606.43 1179.06 629.51 1179.06 669.76 1209.83 646.68"/><path class="cls-4" d="M1208.63,605a1.88,1.88,0,1,1-.38,2.64A1.88,1.88,0,0,1,1208.63,605Z"/><path class="cls-4" d="M1210.88,648.24a1.88,1.88,0,1,0-2.63-.38A1.88,1.88,0,0,0,1210.88,648.24Z"/></g><polygon class="cls-2" points="1146.86 855.09 1179.06 830.94 1179.06 790.69 1146.86 814.84 1146.86 855.09"/><line class="cls-2" x1="1211.24" y1="1057.05" x2="1179.04" y2="1081.2"/><polyline class="cls-2" points="1243.44 1073.48 1243.44 1033.23 1211.24 1057.38"/><polyline class="cls-2" points="1244.42 1073.48 1244.42 1033.23 1276.62 1057.38"/><line class="cls-2" x1="1277.59" y1="1058.08" x2="1309.79" y2="1082.23"/><g class="cls-3"><polyline class="cls-1" points="1279.02 1017.95 1309.79 1041.03 1309.79 1081.28 1279.02 1058.2"/><path class="cls-4" d="M1278,1019.51a1.88,1.88,0,1,1,2.63-.38A1.88,1.88,0,0,1,1278,1019.51Z"/><path class="cls-4" d="M1280.22,1056.75a1.88,1.88,0,1,0,.38,2.63A1.88,1.88,0,0,0,1280.22,1056.75Z"/></g><polygon class="cls-2" points="1277.59 976.49 1309.79 1000.64 1309.79 1040.89 1277.59 1016.74 1277.59 976.49"/><g class="cls-3"><polyline class="cls-1" points="1245.85 913.16 1276.62 936.24 1276.62 976.49 1245.85 953.41"/><path class="cls-4" d="M1244.79,914.72a1.88,1.88,0,1,1,2.63-.37A1.87,1.87,0,0,1,1244.79,914.72Z"/><path class="cls-4" d="M1247.05,952a1.88,1.88,0,1,0,.37,2.63A1.87,1.87,0,0,0,1247.05,952Z"/></g><polygon class="cls-2" points="1244.42 871.78 1276.62 895.93 1276.62 936.18 1244.42 912.03 1244.42 871.78"/><g class="cls-3"><polyline class="cls-1" points="1308.82 881.66 1308.82 920.13 1276.62 895.98 1276.62 857.51"/><circle class="cls-4" cx="1308.82" cy="881.76" r="1.88"/><path class="cls-4" d="M1278.5,857.61a1.88,1.88,0,1,0-1.88,1.88A1.88,1.88,0,0,0,1278.5,857.61Z"/></g><polyline class="cls-2" points="1244.42 831.54 1276.62 855.69 1276.62 895.94 1244.42 871.79"/><polyline class="cls-2" points="1179.04 831.54 1211.24 855.69 1211.24 895.94 1179.04 871.79"/><polyline class="cls-2" points="1179.04 1041.03 1179.04 1081.28 1211.24 1057.13 1211.24 1016.88"/><polygon class="cls-2" points="1243.44 831.54 1211.24 855.69 1211.24 895.94 1243.44 871.79 1243.44 831.54"/><polygon class="cls-2" points="1211.24 766.55 1179.04 790.7 1179.04 830.95 1211.24 806.8 1211.24 766.55"/><line class="cls-2" x1="1342.96" y1="1057.05" x2="1375.16" y2="1081.2"/><polygon class="cls-2" points="1505.91 928.14 1538.11 903.99 1538.11 863.74 1505.91 887.89 1505.91 928.14"/><polygon class="cls-2" points="1505.91 968.23 1538.11 944.09 1538.11 903.84 1505.91 927.99 1505.91 968.23"/><polyline class="cls-2" points="1473.71 992.05 1505.91 967.9 1505.91 927.65 1473.71 951.8"/><polygon class="cls-2" points="1472.73 992.05 1440.54 967.9 1440.54 927.65 1472.73 951.8 1472.73 992.05"/><polygon class="cls-2" points="1439.56 967.21 1407.36 943.06 1407.36 902.81 1439.56 926.96 1439.56 967.21"/><g class="cls-3"><polyline class="cls-1" points="1438.13 1007.34 1407.36 984.26 1407.36 944.01 1439.56 968.16 1439.56 1006.62"/><path class="cls-4" d="M1439.19,1005.78a1.88,1.88,0,1,1-2.64.37A1.88,1.88,0,0,1,1439.19,1005.78Z"/><circle class="cls-4" cx="1439.56" cy="1006.53" r="1.88"/></g><polygon class="cls-2" points="1439.56 1048.79 1407.36 1024.64 1407.36 984.39 1439.56 1008.54 1439.56 1048.79"/><line class="cls-2" x1="1440.54" y1="1048.79" x2="1472.74" y2="1072.94"/><g class="cls-3"><polyline class="cls-1" points="1536.68 945.08 1505.91 968.16 1505.91 1008.41 1536.68 985.33"/><path class="cls-4" d="M1535.48,943.63a1.88,1.88,0,1,1-.38,2.64A1.88,1.88,0,0,1,1535.48,943.63Z"/><path class="cls-4" d="M1537.73,986.89a1.88,1.88,0,1,0-2.63-.37A1.88,1.88,0,0,0,1537.73,986.89Z"/></g><polygon class="cls-1" points="1243.37 621.37 1211.17 645.52 1211.17 685.77 1243.37 661.62 1243.37 621.37"/><polygon class="cls-2" points="1243.37 581.28 1211.17 605.43 1211.17 645.68 1243.37 621.53 1243.37 581.28"/><polyline class="cls-2" points="1275.57 597.71 1275.57 557.46 1243.37 581.61 1243.37 621.86"/><polygon class="cls-2" points="1276.54 557.46 1308.74 581.61 1308.74 621.86 1276.54 597.71 1276.54 557.46"/><polygon class="cls-2" points="1309.71 582.31 1341.91 606.46 1341.91 646.71 1309.71 622.56 1309.71 582.31"/><polygon class="cls-2" points="1309.71 541.11 1341.91 565.25 1341.91 605.5 1309.71 581.36 1309.71 541.11"/><g class="cls-3"><polyline class="cls-1" points="1311.14 501.79 1341.91 524.87 1341.91 565.12 1309.71 540.97 1309.71 502.51"/><path class="cls-4" d="M1310.09,503.35a1.88,1.88,0,1,1,2.63-.37A1.88,1.88,0,0,1,1310.09,503.35Z"/><circle class="cls-4" cx="1309.71" cy="502.6" r="1.88"/></g><polyline class="cls-2" points="1276.54 476.57 1276.54 436.32 1308.74 460.47 1308.74 500.72"/><polygon class="cls-2" points="1276.54 396.01 1308.74 420.16 1308.74 460.41 1276.54 436.26 1276.54 396.01"/><polygon class="cls-2" points="1308.74 379.96 1340.94 404.11 1340.94 444.36 1308.74 420.21 1308.74 379.96"/><g class="cls-3"><polyline class="cls-1" points="1277.97 356.84 1308.74 379.92 1308.74 420.17 1276.54 396.02 1276.54 357.56"/><circle class="cls-4" cx="1278.04" cy="356.9" r="1.88" transform="translate(-37.63 184.33) rotate(-8.13)"/><circle class="cls-4" cx="1276.54" cy="357.65" r="1.88"/></g><g class="cls-3"><polyline class="cls-1" points="1241.94 542.18 1211.17 565.25 1211.17 605.5 1241.94 582.43"/><path class="cls-4" d="M1240.73,540.73a1.88,1.88,0,1,1-.37,2.63A1.88,1.88,0,0,1,1240.73,540.73Z"/><circle class="cls-4" cx="1241.86" cy="582.48" r="1.88" transform="translate(489.61 1729.49) rotate(-81.87)"/></g><g class="cls-3"><polyline class="cls-1" points="1244.8 419.1 1275.57 396.02 1275.57 355.77 1244.8 378.85"/><path class="cls-4" d="M1246,420.55a1.88,1.88,0,1,1,.37-2.63A1.88,1.88,0,0,1,1246,420.55Z"/><circle class="cls-4" cx="1244.87" cy="378.79" r="1.88" transform="translate(693.83 1557.58) rotate(-81.87)"/></g><polyline class="cls-2" points="1374.11 379.96 1341.91 404.11 1341.91 444.36 1374.11 420.21"/><polygon class="cls-2" points="1374.11 339.86 1341.91 364.01 1341.91 404.26 1374.11 380.11 1374.11 339.86"/><polygon class="cls-2" points="1406.31 316.05 1374.11 340.19 1374.11 380.44 1406.31 356.3 1406.31 316.05"/><polygon class="cls-2" points="1407.29 316.05 1439.49 340.19 1439.49 380.44 1407.29 356.3 1407.29 316.05"/><polygon class="cls-2" points="1440.46 340.89 1472.66 365.04 1472.66 405.29 1440.46 381.14 1440.46 340.89"/><g class="cls-3"><polyline class="cls-1" points="1441.89 300.76 1472.66 323.84 1472.66 364.09 1441.89 341.01"/><path class="cls-4" d="M1440.84,302.32a1.88,1.88,0,1,1,2.63-.37A1.88,1.88,0,0,1,1440.84,302.32Z"/><path class="cls-4" d="M1443.09,339.56a1.88,1.88,0,1,0,.38,2.63A1.88,1.88,0,0,0,1443.09,339.56Z"/></g><polygon class="cls-2" points="1440.46 259.31 1472.66 283.45 1472.66 323.7 1440.46 299.55 1440.46 259.31"/><g class="cls-3"><polyline class="cls-1" points="1408.71 195.98 1439.49 219.06 1439.49 259.31 1408.71 236.23"/><path class="cls-4" d="M1407.66,197.54a1.88,1.88,0,1,1,2.63-.38A1.87,1.87,0,0,1,1407.66,197.54Z"/><circle class="cls-4" cx="1408.79" cy="236.28" r="1.88" transform="translate(-19.26 201.61) rotate(-8.13)"/></g><polygon class="cls-2" points="1407.29 154.6 1439.49 178.75 1439.49 219 1407.29 194.85 1407.29 154.6"/><g class="cls-3"><polyline class="cls-1" points="1471.68 164.48 1471.68 202.94 1439.49 178.79 1439.49 140.33"/><circle class="cls-4" cx="1471.68" cy="164.57" r="1.88"/><circle class="cls-4" cx="1439.49" cy="140.42" r="1.88"/></g><polyline class="cls-2" points="1407.29 114.36 1439.49 138.51 1439.49 178.76 1407.29 154.61"/><polyline class="cls-2" points="1341.91 114.36 1374.11 138.51 1374.11 178.76 1341.91 154.61"/><polyline class="cls-2" points="1341.91 323.84 1341.91 364.09 1374.11 339.94 1374.11 299.69"/><polygon class="cls-2" points="1406.31 114.36 1374.11 138.51 1374.11 178.76 1406.31 154.61 1406.31 114.36"/><polygon class="cls-2" points="1374.11 49.36 1341.91 73.51 1341.91 113.76 1374.11 89.61 1374.11 49.36"/><polygon class="cls-2" points="1472.66 605.46 1440.46 629.61 1440.46 669.86 1472.66 645.71 1472.66 605.46"/><polygon class="cls-2" points="1472.66 565.37 1440.46 589.52 1440.46 629.77 1472.66 605.62 1472.66 565.37"/><g class="cls-3"><polyline class="cls-1" points="1503.43 542.62 1472.66 565.7 1472.66 605.95 1504.86 581.8 1504.86 543.34"/><path class="cls-4" d="M1502.23,541.18a1.88,1.88,0,1,1-.38,2.63A1.87,1.87,0,0,1,1502.23,541.18Z"/><path class="cls-4" d="M1506.74,543.43a1.88,1.88,0,1,0-1.88,1.88A1.88,1.88,0,0,0,1506.74,543.43Z"/></g><polygon class="cls-2" points="1505.83 541.55 1538.03 565.7 1538.03 605.95 1505.83 581.8 1505.83 541.55"/><polygon class="cls-2" points="1539.01 566.4 1571.21 590.55 1571.21 630.8 1539.01 606.65 1539.01 566.4"/><g class="cls-3"><polyline class="cls-1" points="1540.43 526.27 1571.21 549.35 1571.21 589.6 1539.01 565.45 1539.01 526.98"/><path class="cls-4" d="M1539.38,527.83a1.88,1.88,0,1,1,2.63-.38A1.87,1.87,0,0,1,1539.38,527.83Z"/><circle class="cls-4" cx="1539.01" cy="527.08" r="1.88"/></g><polygon class="cls-2" points="1539.01 484.81 1571.21 508.96 1571.21 549.21 1539.01 525.06 1539.01 484.81"/><polyline class="cls-2" points="1505.83 420.41 1538.03 444.56 1538.03 484.81 1505.83 460.66"/><polygon class="cls-2" points="1505.83 380.1 1538.03 404.25 1538.03 444.5 1505.83 420.35 1505.83 380.1"/><polyline class="cls-2" points="1538.03 404.3 1538.03 364.05 1570.23 388.2 1570.23 428.45"/><polygon class="cls-2" points="1505.83 339.86 1538.03 364.01 1538.03 404.26 1505.83 380.11 1505.83 339.86"/><polygon class="cls-2" points="1472.66 525.2 1440.46 549.35 1440.46 589.6 1472.66 565.45 1472.66 525.2"/><polyline class="cls-2" points="1472.66 364.01 1472.66 404.26 1504.86 380.11 1504.86 339.86"/><polygon class="cls-2" points="1668.78 210.96 1700.98 186.81 1700.98 146.56 1668.78 170.71 1668.78 210.96"/><polygon class="cls-2" points="1668.78 251.05 1700.98 226.9 1700.98 186.65 1668.78 210.8 1668.78 251.05"/><polyline class="cls-2" points="1636.58 274.87 1668.78 250.72 1668.78 210.47 1636.58 234.62"/><polygon class="cls-2" points="1635.6 274.87 1603.4 250.72 1603.4 210.47 1635.6 234.62 1635.6 274.87"/><polygon class="cls-2" points="1602.43 250.02 1570.23 225.87 1570.23 185.62 1602.43 209.77 1602.43 250.02"/><g class="cls-3"><polyline class="cls-1" points="1601 290.15 1570.23 267.07 1570.23 226.82 1602.43 250.97 1602.43 289.44"/><path class="cls-4" d="M1602.05,288.59a1.88,1.88,0,1,1-2.63.38A1.87,1.87,0,0,1,1602.05,288.59Z"/><path class="cls-4" d="M1600.55,289.34a1.88,1.88,0,1,0,1.88-1.88A1.88,1.88,0,0,0,1600.55,289.34Z"/></g><polygon class="cls-2" points="1602.43 331.61 1570.23 307.46 1570.23 267.21 1602.43 291.36 1602.43 331.61"/><polyline class="cls-2" points="1603.4 331.61 1635.6 355.76 1635.6 396 1603.4 371.86"/><polygon class="cls-2" points="1635.6 436.31 1603.4 412.17 1603.4 371.92 1635.6 396.06 1635.6 436.31"/><polygon class="cls-2" points="1603.4 452.37 1571.21 428.22 1571.21 387.97 1603.4 412.12 1603.4 452.37"/><polygon class="cls-2" points="1635.6 476.55 1603.4 452.4 1603.4 412.16 1635.6 436.31 1635.6 476.55"/><g class="cls-3"><polyline class="cls-1" points="1699.55 227.9 1668.78 250.97 1668.78 291.22 1699.55 268.14"/><path class="cls-4" d="M1698.35,226.45a1.88,1.88,0,1,1-.38,2.63A1.87,1.87,0,0,1,1698.35,226.45Z"/><path class="cls-4" d="M1700.6,269.7a1.88,1.88,0,1,0-2.63-.37A1.88,1.88,0,0,0,1700.6,269.7Z"/></g><polygon class="cls-2" points="1636.58 476.55 1668.78 452.4 1668.78 412.16 1636.58 436.31 1636.58 476.55"/></g></g></svg>