<svg xmlns="http://www.w3.org/2000/svg" xmlns:xlink="http://www.w3.org/1999/xlink" viewBox="0 0 308.57 27.47"><defs><style>.cls-1{fill:none;}.cls-2{clip-path:url(#clip-path);}.cls-3{fill:#fff;}.cls-4{clip-path:url(#clip-path-2);}</style><clipPath id="clip-path" transform="translate(0.05 -0.19)"><rect class="cls-1" width="308.8" height="27.97"/></clipPath><clipPath id="clip-path-2" transform="translate(0.05 -0.19)"><rect class="cls-1" y="0.19" width="308.8" height="27.63"/></clipPath></defs><g id="Layer_2" data-name="Layer 2"><g id="Layer_1-2" data-name="Layer 1"><g class="cls-2"><path class="cls-3" d="M7.73,27.26h5.79V5.64h7.77V.57H0V5.64H7.73Z" transform="translate(0.05 -0.19)"/></g><path class="cls-3" d="M30.75,16H42.39V27.26h5.79V.57H42.39V10.82H30.75V.57H24.92V27.26h5.83Z" transform="translate(0.05 -0.19)"/><path class="cls-3" d="M60.09,5.49h5.37a4.68,4.68,0,0,1,3.32,1.12,4.09,4.09,0,0,1,0,5.78l0,0a4.68,4.68,0,0,1-3.32,1.12H60.09Zm0,12.57H64.2l6,9.19h6.74l-6.75-10a8.34,8.34,0,0,0,5.6-8A8,8,0,0,0,73.12,3,10,10,0,0,0,66.19.61H54.26V27.26h5.83Z" transform="translate(0.05 -0.19)"/><path class="cls-3" d="M116.22,7.26l3.7,9.79h-7.43Zm-5.33,14.4h10.67l2.13,5.6h6.4L119.27.57h-5.79L102.66,27.26h6.09Z" transform="translate(0.05 -0.19)"/><path class="cls-3" d="M135,27.26h5.79V5.64h7.78V.57H127.23V5.64H135Z" transform="translate(0.05 -0.19)"/><path class="cls-3" d="M172.53,22.06h-13V.57H153.7V27.26h18.86Z" transform="translate(0.05 -0.19)"/><g class="cls-4"><path class="cls-3" d="M198.09,4.11A13.2,13.2,0,0,0,192,.64l1.3,6.71a6.47,6.47,0,0,1,.67.61,8.18,8.18,0,0,1,2.35,6,8.54,8.54,0,0,1-.95,4.06v.08a8.21,8.21,0,0,1-13.08,1.84,8.34,8.34,0,0,1-1.34-1.84l-.07-.12a8.66,8.66,0,0,1-.91-4,8.18,8.18,0,0,1,2.32-6c.21-.21.43-.41.65-.6L184.2.72a13.58,13.58,0,0,0-6,3.51A13.24,13.24,0,0,0,174.12,14a13.06,13.06,0,0,0,4,9.7,13.59,13.59,0,0,0,9.93,3.91,13.81,13.81,0,0,0,10.1-23.52" transform="translate(0.05 -0.19)"/><path class="cls-3" d="M223.33,27.11a13.44,13.44,0,0,0,3-1.14,11.71,11.71,0,0,0,2.1-1.45,11.93,11.93,0,0,0,1.22-1.14l.42-.52L226,19.2l-.23.35a7.19,7.19,0,0,1-.8.76,10.17,10.17,0,0,1-1.25.9,8.13,8.13,0,0,1-1.83.76,8.73,8.73,0,0,1-2.33.32,7.85,7.85,0,0,1-5.87-2.4,8.84,8.84,0,0,1,0-11.93,7.85,7.85,0,0,1,5.87-2.4,8.65,8.65,0,0,1,2.21.29,7,7,0,0,1,1.7.65,9.7,9.7,0,0,1,1.2.81q.38.3.72.63a2.09,2.09,0,0,1,.23.29l4.27-3.73-.38-.42A7.16,7.16,0,0,0,228.24,3a15.43,15.43,0,0,0-2-1.28A12.07,12.07,0,0,0,223.39.63a15.32,15.32,0,0,0-3.75-.44,13.71,13.71,0,0,0-10,4A13.24,13.24,0,0,0,205.56,14a13.06,13.06,0,0,0,4,9.7,13.63,13.63,0,0,0,9.93,3.91,14.46,14.46,0,0,0,3.92-.52" transform="translate(0.05 -0.19)"/></g><path class="cls-3" d="M239.91,14.33l11.24,12.93h7l-12.5-14L257.44.61h-7.05L239.91,12.77V.57h-5.83V27.26h5.83Z" transform="translate(0.05 -0.19)"/><path class="cls-3" d="M281.07,22.26H266.89V15.93h11.89V11.16H266.89V5.64h13.8V.57H261.06V27.26h20Z" transform="translate(0.05 -0.19)"/><path class="cls-3" d="M291.66,5.49H297a4.69,4.69,0,0,1,3.36,1.12,4.09,4.09,0,0,1,.05,5.78l-.05,0a4.68,4.68,0,0,1-3.32,1.12H291.7Zm0,12.57h4.12l6,9.19h6.74l-6.74-10a8.31,8.31,0,0,0,5.6-8A8,8,0,0,0,304.71,3,10,10,0,0,0,297.78.6H285.83V27.26h5.83Z" transform="translate(0.05 -0.19)"/><path class="cls-3" d="M188.06,5.55A2,2,0,0,1,189,9.39l.81,4.19h-3.46l.82-4.19a2,2,0,0,1,.91-3.84m5.33,10.87L190.22.26h-4.31l-3.15,16.17Z" transform="translate(0.05 -0.19)"/><path class="cls-3" d="M86.76,22.26V15.93H98.65V11.16H80.93v16.1h20v-5Z" transform="translate(0.05 -0.19)"/><rect class="cls-3" x="80.98" y="0.38" width="19.63" height="5.07"/></g></g></svg>