<svg xmlns="http://www.w3.org/2000/svg" viewBox="0 0 1400 800"><defs><style>.cls-1{fill:#d9d9d9;}.cls-2{fill:#a6a6a6;}</style></defs><g id="Layer_2" data-name="Layer 2"><g id="Ñëîé_1" data-name="Ñëîé 1"><polygon class="cls-1" points="121.1 0 171.38 50.2 379.04 50.2 422.51 6.87 637.94 6.87 637.94 9.8 423.75 9.8 380.28 53.21 170.17 53.21 116.81 0 121.1 0"/><polygon class="cls-1" points="90.44 0 34.33 55.91 0 55.91 0 52.91 33.08 52.91 86.18 0 90.44 0"/><polygon class="cls-1" points="174.18 0 190.69 16.48 306.53 16.48 382.4 92.11 530.23 92.19 552.47 69.96 661.01 69.96 661.01 72.89 553.68 72.89 531.47 95.05 381.12 95.12 305.33 19.48 189.46 19.41 170.02 0 174.18 0"/><path class="cls-1" d="M100.64,301.47,51.75,252.76H.3v2.92H50.54l48.91,48.8A11.06,11.06,0,0,1,100.64,301.47Z"/><polygon class="cls-1" points="576.78 239.91 642.62 239.83 642.62 236.91 577.98 236.91 534.03 192.97 407.47 192.97 407.47 195.97 532.83 195.97 576.78 239.91"/><polygon class="cls-1" points="0 342.07 219.11 342.07 283.35 278.01 398.96 278.01 444.35 232.64 491.5 232.64 491.5 235.65 445.55 235.65 400.2 280.93 284.56 281.01 220.31 345 0 345 0 342.07"/><path class="cls-1" d="M66.91,224.57H0v-2.93H66.82A13,13,0,0,0,66.91,224.57Z"/><polygon class="cls-1" points="110.35 241.5 45.24 176.46 0 176.46 0 173.53 46.44 173.53 111.63 238.57 317.19 238.57 374.46 295.73 529.97 295.73 529.97 298.74 373.26 298.74 315.94 241.5 110.35 241.5"/><path class="cls-1" d="M632,8.82a5.91,5.91,0,1,0,5.91-5.93A5.91,5.91,0,0,0,632,8.82Z"/><path class="cls-1" d="M635.7,238.33a5.91,5.91,0,1,0,11.82,0,5.91,5.91,0,0,0-11.82,0Z"/><path class="cls-1" d="M401.52,194.47a6,6,0,0,0,6,5.93,5.93,5.93,0,1,0-6-5.93Z"/><path class="cls-1" d="M484.54,233.62a5.91,5.91,0,1,0,5.91-5.94A5.88,5.88,0,0,0,484.54,233.62Z"/><path class="cls-1" d="M216.51,217.4a5.91,5.91,0,1,0,6-5.94A5.89,5.89,0,0,0,216.51,217.4Z"/><path class="cls-1" d="M373.81,51.71a5.83,5.83,0,0,0,5.83,5.93,5.94,5.94,0,1,0,0-11.87A5.87,5.87,0,0,0,373.81,51.71Z"/><path class="cls-1" d="M297.31,160.16a5.83,5.83,0,0,0,5.95,5.93,5.9,5.9,0,0,0,5.83-5.93,5.89,5.89,0,1,0-11.78,0Z"/><path class="cls-1" d="M277.33,279.21a5.81,5.81,0,0,0,5.87,5.93,5.92,5.92,0,0,0,5.91-5.93,5.89,5.89,0,0,0-11.78,0Z"/><path class="cls-1" d="M213.77,342.07a6,6,0,0,0,11.92,0,6,6,0,0,0-11.92,0Z"/><path class="cls-1" d="M523.08,296.71a5.93,5.93,0,0,0,5.91,5.93,5.84,5.84,0,0,0,5.9-5.93,5.91,5.91,0,1,0-11.81,0Z"/><path class="cls-1" d="M60.92,223.07a5.91,5.91,0,1,0,5.9-5.86A5.89,5.89,0,0,0,60.92,223.07Z"/><path class="cls-1" d="M92.44,302.61a5.91,5.91,0,1,0,5.9-5.86A5.89,5.89,0,0,0,92.44,302.61Z"/><path class="cls-1" d="M0,97.45a5.62,5.62,0,0,1,.6,2.63,5.48,5.48,0,0,1-.6,2.58Z"/><path class="cls-1" d="M310.6,240.15a5.88,5.88,0,0,0,5.91,5.86,5.9,5.9,0,1,0,0-11.79A5.9,5.9,0,0,0,310.6,240.15Z"/><path class="cls-1" d="M300,17.91a5.95,5.95,0,1,0,6-5.86A5.9,5.9,0,0,0,300,17.91Z"/><path class="cls-1" d="M164.94,51.71a5.83,5.83,0,0,0,5.83,5.93,5.94,5.94,0,1,0-5.83-5.93Z"/><path class="cls-1" d="M653.56,71.46a6,6,0,1,0,11.9-.08,5.89,5.89,0,0,0-6-5.85A6,6,0,0,0,653.56,71.46Z"/><polygon class="cls-2" points="214.23 0 229.46 15.58 270.33 15.58 270.33 18.13 228.4 18.13 210.7 0 214.23 0"/><polygon class="cls-2" points="0.34 71.31 70.57 71.31 119.94 22.04 170.22 22.04 217.19 68.91 403.7 68.91 441.64 31.05 688.14 31.05 688.14 28.42 440.58 28.42 402.57 66.35 218.24 66.35 171.24 19.41 118.89 19.41 69.44 68.68 0.34 68.68 0.34 71.31"/><polygon class="cls-2" points="166.39 0 170.12 0 207.03 36.84 308.19 36.84 374.42 102.93 506.59 102.93 525.94 83.55 622.8 83.55 622.8 86.11 527.07 86.11 507.65 105.48 373.37 105.48 307.14 39.46 205.98 39.46 166.39 0"/><polygon class="cls-2" points="33.19 0 19.16 14 0 14 0 11.37 18.14 11.37 29.58 0 33.19 0"/><polygon class="cls-2" points="142.71 260.43 187.61 260.43 233.82 214.39 292.46 214.39 422.75 84.45 494.55 84.45 494.59 81.83 421.66 81.83 291.4 211.84 232.7 211.84 186.56 257.88 142.68 257.8 142.71 260.43"/><polygon class="cls-2" points="150.99 111.92 177.33 85.63 322.25 85.63 322.22 89.21 178.77 89.21 152.5 115.5 87.61 115.5 54.19 82.15 53.86 82.15 0.8 82.08 0.8 78.57 55.63 78.57 89.05 111.92 150.99 111.92"/><polygon class="cls-2" points="56.76 132.22 35.83 111.34 0 111.34 0 108.71 36.96 108.71 57.85 129.59 170.37 129.59 202.74 161.89 305.7 161.89 305.7 164.44 201.68 164.44 169.32 132.22 56.76 132.22"/><polygon class="cls-2" points="385.34 156.68 539.83 156.61 566.14 182.9 641 182.9 641 186.47 564.66 186.47 538.35 160.26 383.49 160.26 336.3 113.09 335.96 113.09 271.95 113.17 271.72 113.4 173.54 211.33 128.22 211.33 107.03 190.3 0.8 190.3 0.8 186.73 108.58 186.73 129.66 207.76 172.06 207.76 172.29 207.52 270.51 109.51 337.74 109.51 385.01 156.68 385.34 156.68"/><polygon class="cls-2" points="355.49 195.44 355.72 195.2 433.54 117.55 581.14 117.48 581.12 121.06 434.95 121.06 434.71 121.29 356.89 198.94 187.64 199.02 151.21 162.59 0.8 162.59 0.8 159.01 152.73 159.01 189.16 195.44 355.49 195.44"/><polygon class="cls-2" points="544.15 217.85 601.7 217.85 601.62 215.29 545.21 215.29 506.86 176.99 396.37 176.99 396.33 179.54 505.77 179.54 544.15 217.85"/><polygon class="cls-2" points="0 285.82 0.87 285.82 36.21 321.12 231.87 321.12 287.94 265.16 388.88 265.16 428.54 225.58 469.6 225.58 469.68 228.21 429.6 228.21 389.93 267.79 289 267.79 232.92 323.75 35.23 323.75 0 288.63 0 285.82"/><polygon class="cls-2" points="136.99 233.31 80.05 176.46 0 176.46 0 173.98 81.11 173.98 138.08 230.76 317.52 230.76 367.5 280.71 503.29 280.71 503.29 283.26 366.45 283.26 316.39 233.31 136.99 233.31"/><path class="cls-2" d="M265.17,16.86a5.18,5.18,0,1,0,5.16-5.19A5.17,5.17,0,0,0,265.17,16.86Z"/><path class="cls-2" d="M683,30.15a5.15,5.15,0,0,0,5.19,5.18,5.23,5.23,0,0,0,5.2-5.18,5.3,5.3,0,0,0-5.2-5.18A5.22,5.22,0,0,0,683,30.15Z"/><path class="cls-2" d="M488.53,84.45a5.2,5.2,0,0,0,10.39,0,5.2,5.2,0,0,0-10.39,0Z"/><path class="cls-2" d="M595.6,216.57a5.2,5.2,0,1,0,5.16-5.19A5.22,5.22,0,0,0,595.6,216.57Z"/><path class="cls-2" d="M391.13,178.26a5.2,5.2,0,1,0,5.2-5.18A5.2,5.2,0,0,0,391.13,178.26Z"/><path class="cls-2" d="M463.62,226.48a5.18,5.18,0,1,0,5.19-5.18A5.2,5.2,0,0,0,463.62,226.48Z"/><path class="cls-2" d="M229.61,212.29a5.16,5.16,0,0,0,5.19,5.11,5.08,5.08,0,0,0,5.12-5.11,5.13,5.13,0,0,0-5.08-5.19A5.21,5.21,0,0,0,229.61,212.29Z"/><path class="cls-2" d="M164.88,129.59a5.2,5.2,0,0,0,10.39,0,5.2,5.2,0,0,0-10.39,0Z"/><path class="cls-2" d="M398,67.63a5.23,5.23,0,0,0,5.2,5.18,5.19,5.19,0,0,0,0-10.37A5.22,5.22,0,0,0,398,67.63Z"/><path class="cls-2" d="M300.14,162.34a5.2,5.2,0,0,0,5.19,5.18,5.18,5.18,0,1,0-5.19-5.18Z"/><path class="cls-2" d="M282.71,266.29a5.14,5.14,0,0,0,10.28,0,5.14,5.14,0,1,0-10.28,0Z"/><path class="cls-2" d="M227.2,321.12a5.35,5.35,0,0,0,5.19,5.26,5.19,5.19,0,1,0,0-10.37A5.18,5.18,0,0,0,227.2,321.12Z"/><path class="cls-2" d="M497.26,281.54a5.2,5.2,0,0,0,5.19,5.18,5.19,5.19,0,0,0,0-10.37A5.31,5.31,0,0,0,497.26,281.54Z"/><path class="cls-2" d="M140.94,257.88a5.2,5.2,0,0,0,10.39,0,5.2,5.2,0,0,0-10.39,0Z"/><path class="cls-2" d="M30.75,109.84a5.2,5.2,0,0,0,10.39,0,5.2,5.2,0,0,0-10.39,0Z"/><path class="cls-2" d="M311.8,232.11a5.14,5.14,0,0,0,5.12,5.19,5.28,5.28,0,0,0,5.19-5.19,5.16,5.16,0,1,0-10.31,0Z"/><path class="cls-2" d="M302.47,38.11a5.15,5.15,0,0,0,5.19,5.18,5.2,5.2,0,0,0,5.2-5.18,5.2,5.2,0,0,0-10.39,0Z"/><path class="cls-2" d="M114.75,21.06a5.2,5.2,0,1,0,5.19-5.18A5.2,5.2,0,0,0,114.75,21.06Z"/><path class="cls-2" d="M212.6,67.63a5.11,5.11,0,0,0,5.12,5.18,5.19,5.19,0,1,0-5.12-5.18Z"/><path class="cls-2" d="M616.32,84.83a5.34,5.34,0,0,0,5.2,5.25,5.28,5.28,0,0,0,5.16-5.25,5.06,5.06,0,0,0-5.16-5.11A5.14,5.14,0,0,0,616.32,84.83Z"/><path class="cls-2" d="M574.16,119.3a7.34,7.34,0,0,0,14.68,0,7.34,7.34,0,1,0-14.68,0Z"/><path class="cls-2" d="M315.15,87.68A7.24,7.24,0,0,0,322.42,95a7.38,7.38,0,0,0,7.37-7.36,7.32,7.32,0,0,0-14.64.07Z"/><path class="cls-2" d="M170.22,88a7.3,7.3,0,1,0,7.3-7.36A7.25,7.25,0,0,0,170.22,88Z"/><path class="cls-2" d="M635.33,185.17a7.31,7.31,0,1,0,7.3-7.36A7.33,7.33,0,0,0,635.33,185.17Z"/><path class="cls-2" d="M270.37,29a12.17,12.17,0,1,1,12.15-12.16A12.2,12.2,0,0,1,270.37,29Zm0-22.23a10.07,10.07,0,1,0,0,20.13,10.07,10.07,0,1,0,0-20.13Z"/><path class="cls-2" d="M120,33.53a12.21,12.21,0,1,1,12.19-12.17A12.31,12.31,0,0,1,120,33.53Zm0-22.31a10.07,10.07,0,1,0,10.09,10.07A10.13,10.13,0,0,0,120,11.22Z"/><path class="cls-2" d="M687.8,42.07A12.17,12.17,0,1,1,700,29.9,12.16,12.16,0,0,1,687.8,42.07Zm0-22.23a10.07,10.07,0,1,0,0,20.13A10,10,0,0,0,697.89,29.9,10.07,10.07,0,0,0,687.84,19.84Z"/><path class="cls-2" d="M146.15,270.08a12.17,12.17,0,1,1,12.2-12.17A12.21,12.21,0,0,1,146.15,270.08Zm-.07-22.23a10.07,10.07,0,1,0,10.12,10.06A10,10,0,0,0,146.08,247.85Z"/><path class="cls-2" d="M232.23,333.08a12.13,12.13,0,1,1,12.16-12.17A12.15,12.15,0,0,1,232.23,333.08Zm0-22.23a10.07,10.07,0,1,0,10.09,10.06A10.15,10.15,0,0,0,232.19,310.85Z"/><path class="cls-2" d="M468.79,238.61A12.17,12.17,0,1,1,481,226.44,12.2,12.2,0,0,1,468.79,238.61Zm0-22.23a10.07,10.07,0,1,0,0,20.13,10.07,10.07,0,1,0,0-20.13Z"/><path class="cls-2" d="M502.44,293.7a12.17,12.17,0,1,1,12.19-12.17A12.2,12.2,0,0,1,502.44,293.7Zm0-22.23a10.07,10.07,0,1,0,10.09,10.06A10.15,10.15,0,0,0,502.4,271.47Z"/><path class="cls-2" d="M600.79,226.93a10.37,10.37,0,1,1,0-20.73,10.37,10.37,0,1,1,0,20.73Zm0-18.93a8.57,8.57,0,1,0,8.59,8.56A8.54,8.54,0,0,0,600.79,208Z"/><path class="cls-2" d="M621.48,95.3a10.4,10.4,0,1,1,10.43-10.43A10.51,10.51,0,0,1,621.48,95.3Zm0-19a8.6,8.6,0,1,0,0,17.2,8.76,8.76,0,0,0,8.62-8.63A8.63,8.63,0,0,0,621.48,76.3Z"/><path class="cls-2" d="M493.52,95a10.37,10.37,0,1,1,10.39-10.37A10.39,10.39,0,0,1,493.52,95Zm0-18.93a8.56,8.56,0,1,0,8.58,8.56A8.62,8.62,0,0,0,493.52,76Z"/><path class="cls-2" d="M177.24,104.15a16.37,16.37,0,1,1,16.37-16.29A16.43,16.43,0,0,1,177.24,104.15Zm0-29.89a13.56,13.56,0,1,0,13.55,13.52A13.67,13.67,0,0,0,177.2,74.26Z"/><path class="cls-2" d="M322.51,104.05a16.37,16.37,0,1,1,16.37-16.29A16.44,16.44,0,0,1,322.51,104.05Zm0-29.89a13.56,13.56,0,1,0,13.59,13.52A13.61,13.61,0,0,0,322.47,74.16Z"/><path class="cls-2" d="M581.84,135.6a16.37,16.37,0,1,1,16.37-16.37A16.43,16.43,0,0,1,581.84,135.6Zm0-29.89a13.56,13.56,0,1,0,13.59,13.59A13.64,13.64,0,0,0,581.84,105.71Z"/><polygon class="cls-1" points="1278.9 800 1228.62 749.8 1020.96 749.8 977.49 793.13 762.06 793.13 762.06 790.2 976.25 790.2 1019.72 746.79 1229.83 746.79 1283.19 800 1278.9 800"/><polygon class="cls-1" points="1309.57 800 1365.67 744.09 1400 744.09 1400 747.09 1366.92 747.09 1313.82 800 1309.57 800"/><polygon class="cls-1" points="1225.82 800 1209.31 783.52 1093.47 783.52 1017.6 707.88 869.77 707.81 847.53 730.04 738.99 730.04 738.99 727.11 846.32 727.11 868.53 704.96 1018.88 704.88 1094.67 780.51 1210.55 780.59 1229.98 800 1225.82 800"/><path class="cls-1" d="M1299.36,498.53l48.89,48.71h51.45v-2.92h-50.24l-48.91-48.8A11.06,11.06,0,0,1,1299.36,498.53Z"/><polygon class="cls-1" points="823.22 560.09 757.38 560.17 757.38 563.1 822.02 563.1 865.97 607.03 992.53 607.03 992.53 604.03 867.17 604.03 823.22 560.09"/><polygon class="cls-1" points="1400 457.93 1180.89 457.93 1116.65 521.99 1001.04 521.99 955.65 567.36 908.5 567.36 908.5 564.35 954.45 564.35 999.79 519.07 1115.44 518.99 1179.69 455 1400 455 1400 457.93"/><path class="cls-1" d="M1333.09,575.43H1400v2.93h-66.82A13,13,0,0,0,1333.09,575.43Z"/><polygon class="cls-1" points="1289.65 558.5 1354.76 623.54 1400 623.54 1400 626.47 1353.56 626.47 1288.37 561.43 1082.82 561.43 1025.54 504.27 870.03 504.27 870.03 501.26 1026.74 501.26 1084.06 558.5 1289.65 558.5"/><path class="cls-1" d="M768,791.18a5.91,5.91,0,1,0-5.91,5.93A5.91,5.91,0,0,0,768,791.18Z"/><path class="cls-1" d="M764.3,561.67a5.91,5.91,0,1,0-11.82,0,5.91,5.91,0,0,0,11.82,0Z"/><path class="cls-1" d="M998.48,605.53a6,6,0,0,0-6-5.93,5.93,5.93,0,1,0,6,5.93Z"/><path class="cls-1" d="M915.46,566.38a5.91,5.91,0,1,0-5.91,5.94A5.88,5.88,0,0,0,915.46,566.38Z"/><path class="cls-1" d="M1183.49,582.6a5.91,5.91,0,1,0-6,5.94A5.89,5.89,0,0,0,1183.49,582.6Z"/><path class="cls-1" d="M1026.19,748.29a5.83,5.83,0,0,0-5.83-5.93,5.94,5.94,0,1,0,0,11.87A5.87,5.87,0,0,0,1026.19,748.29Z"/><path class="cls-1" d="M1102.69,639.84a5.83,5.83,0,0,0-6-5.93,5.9,5.9,0,0,0-5.83,5.93,5.89,5.89,0,1,0,11.78,0Z"/><path class="cls-1" d="M1122.67,520.79a5.81,5.81,0,0,0-5.87-5.93,5.92,5.92,0,0,0-5.91,5.93,5.89,5.89,0,0,0,11.78,0Z"/><path class="cls-1" d="M1186.23,457.93a6,6,0,0,0-11.92,0,6,6,0,0,0,11.92,0Z"/><path class="cls-1" d="M876.92,503.29a5.93,5.93,0,0,0-5.91-5.93,5.84,5.84,0,0,0-5.9,5.93,5.91,5.91,0,1,0,11.81,0Z"/><path class="cls-1" d="M1339.08,576.93a5.91,5.91,0,1,0-5.9,5.86A5.89,5.89,0,0,0,1339.08,576.93Z"/><path class="cls-1" d="M1307.56,497.39a5.91,5.91,0,1,0-5.9,5.86A5.89,5.89,0,0,0,1307.56,497.39Z"/><path class="cls-1" d="M1400,702.55a5.62,5.62,0,0,1-.6-2.63,5.48,5.48,0,0,1,.6-2.58Z"/><path class="cls-1" d="M1089.4,559.85a5.88,5.88,0,0,0-5.91-5.86,5.9,5.9,0,1,0,0,11.79A5.9,5.9,0,0,0,1089.4,559.85Z"/><path class="cls-1" d="M1100,782.09a5.95,5.95,0,1,0-6,5.86A5.9,5.9,0,0,0,1100,782.09Z"/><path class="cls-1" d="M1235.06,748.29a5.83,5.83,0,0,0-5.83-5.93,5.94,5.94,0,1,0,5.83,5.93Z"/><path class="cls-1" d="M746.44,728.54a6,6,0,1,0-11.9.08,5.89,5.89,0,0,0,6,5.85A6,6,0,0,0,746.44,728.54Z"/><polygon class="cls-2" points="1185.77 800 1170.54 784.42 1129.67 784.42 1129.67 781.87 1171.6 781.87 1189.3 800 1185.77 800"/><polygon class="cls-2" points="1399.66 728.69 1329.43 728.69 1280.06 777.96 1229.78 777.96 1182.81 731.09 996.3 731.09 958.36 768.95 711.86 768.95 711.86 771.58 959.41 771.58 997.42 733.65 1181.76 733.65 1228.76 780.59 1281.11 780.59 1330.56 731.32 1399.66 731.32 1399.66 728.69"/><polygon class="cls-2" points="1233.61 800 1229.88 800 1192.97 763.16 1091.81 763.16 1025.58 697.07 893.41 697.07 874.06 716.45 777.2 716.45 777.2 713.89 872.93 713.89 892.35 694.52 1026.63 694.52 1092.86 760.54 1194.02 760.54 1233.61 800"/><polygon class="cls-2" points="1366.81 800 1380.84 786 1400 786 1400 788.63 1381.86 788.63 1370.42 800 1366.81 800"/><polygon class="cls-2" points="1257.29 539.57 1212.39 539.57 1166.18 585.61 1107.54 585.61 977.25 715.55 905.45 715.55 905.41 718.17 978.34 718.17 1108.6 588.16 1167.3 588.16 1213.44 542.12 1257.33 542.2 1257.29 539.57"/><polygon class="cls-2" points="1249.02 688.08 1222.67 714.37 1077.75 714.37 1077.78 710.79 1221.23 710.79 1247.5 684.5 1312.39 684.5 1345.81 717.85 1346.14 717.85 1399.2 717.92 1399.2 721.43 1344.37 721.43 1310.95 688.08 1249.02 688.08"/><polygon class="cls-2" points="1343.24 667.78 1364.17 688.66 1400 688.66 1400 691.29 1363.04 691.29 1342.15 670.4 1229.63 670.4 1197.26 638.11 1094.3 638.11 1094.3 635.56 1198.32 635.56 1230.68 667.78 1343.24 667.78"/><polygon class="cls-2" points="1014.66 643.32 860.16 643.39 833.86 617.1 759 617.1 759 613.53 835.34 613.53 861.65 639.74 1016.51 639.74 1063.7 686.91 1064.04 686.91 1128.05 686.83 1128.28 686.6 1226.46 588.67 1271.79 588.67 1292.97 609.7 1399.2 609.7 1399.2 613.27 1291.41 613.27 1270.34 592.24 1227.94 592.24 1227.7 592.48 1129.49 690.49 1062.26 690.49 1014.99 643.32 1014.66 643.32"/><polygon class="cls-2" points="1044.51 604.56 1044.28 604.8 966.46 682.45 818.86 682.52 818.88 678.95 965.05 678.95 965.29 678.71 1043.11 601.06 1212.36 600.98 1248.79 637.41 1399.2 637.41 1399.2 640.99 1247.27 640.99 1210.84 604.56 1044.51 604.56"/><polygon class="cls-2" points="855.85 582.15 798.3 582.15 798.38 584.71 854.79 584.71 893.14 623.01 1003.63 623.01 1003.67 620.46 894.23 620.46 855.85 582.15"/><polygon class="cls-2" points="1400 514.18 1399.13 514.18 1363.79 478.88 1168.13 478.88 1112.06 534.84 1011.13 534.84 971.46 574.42 930.4 574.42 930.32 571.79 970.4 571.79 1010.07 532.21 1111.01 532.21 1167.08 476.25 1364.77 476.25 1400 511.37 1400 514.18"/><polygon class="cls-2" points="1263.01 566.69 1319.95 623.54 1400 623.54 1400 626.02 1318.89 626.02 1261.92 569.24 1082.48 569.24 1032.5 519.29 896.72 519.29 896.72 516.74 1033.55 516.74 1083.61 566.69 1263.01 566.69"/><path class="cls-2" d="M1134.83,783.14a5.18,5.18,0,1,0-5.16,5.19A5.17,5.17,0,0,0,1134.83,783.14Z"/><path class="cls-2" d="M717.05,769.85a5.15,5.15,0,0,0-5.19-5.18,5.23,5.23,0,0,0-5.2,5.18,5.3,5.3,0,0,0,5.2,5.18A5.22,5.22,0,0,0,717.05,769.85Z"/><path class="cls-2" d="M911.47,715.55a5.2,5.2,0,0,0-10.39,0,5.2,5.2,0,0,0,10.39,0Z"/><path class="cls-2" d="M804.4,583.43a5.2,5.2,0,1,0-5.16,5.19A5.22,5.22,0,0,0,804.4,583.43Z"/><path class="cls-2" d="M1008.87,621.74a5.2,5.2,0,1,0-5.2,5.18A5.2,5.2,0,0,0,1008.87,621.74Z"/><path class="cls-2" d="M936.38,573.52a5.18,5.18,0,1,0-5.19,5.18A5.2,5.2,0,0,0,936.38,573.52Z"/><path class="cls-2" d="M1170.39,587.71a5.16,5.16,0,0,0-5.19-5.11,5.08,5.08,0,0,0-5.12,5.11,5.13,5.13,0,0,0,5.08,5.19A5.21,5.21,0,0,0,1170.39,587.71Z"/><path class="cls-2" d="M1235.12,670.41a5.2,5.2,0,0,0-10.39,0,5.2,5.2,0,0,0,10.39,0Z"/><path class="cls-2" d="M1002,732.37a5.23,5.23,0,0,0-5.2-5.18,5.19,5.19,0,0,0,0,10.37A5.22,5.22,0,0,0,1002,732.37Z"/><path class="cls-2" d="M1099.87,637.66a5.2,5.2,0,0,0-5.2-5.18,5.18,5.18,0,1,0,5.2,5.18Z"/><path class="cls-2" d="M1117.29,533.71a5.14,5.14,0,0,0-10.28,0,5.14,5.14,0,1,0,10.28,0Z"/><path class="cls-2" d="M1172.8,478.88a5.35,5.35,0,0,0-5.19-5.26,5.19,5.19,0,1,0,0,10.37A5.18,5.18,0,0,0,1172.8,478.88Z"/><path class="cls-2" d="M902.74,518.46a5.2,5.2,0,0,0-5.19-5.18,5.19,5.19,0,0,0,0,10.37A5.31,5.31,0,0,0,902.74,518.46Z"/><path class="cls-2" d="M1259.06,542.12a5.2,5.2,0,0,0-10.39,0,5.2,5.2,0,0,0,10.39,0Z"/><path class="cls-2" d="M1369.25,690.16a5.2,5.2,0,0,0-10.39,0,5.2,5.2,0,0,0,10.39,0Z"/><path class="cls-2" d="M1088.2,567.89a5.14,5.14,0,0,0-5.12-5.19,5.28,5.28,0,0,0-5.19,5.19,5.16,5.16,0,1,0,10.31,0Z"/><path class="cls-2" d="M1097.53,761.89a5.15,5.15,0,0,0-5.19-5.18,5.2,5.2,0,0,0-5.2,5.18,5.2,5.2,0,0,0,10.39,0Z"/><path class="cls-2" d="M1285.25,778.94a5.2,5.2,0,1,0-5.19,5.18A5.2,5.2,0,0,0,1285.25,778.94Z"/><path class="cls-2" d="M1187.4,732.37a5.11,5.11,0,0,0-5.12-5.18,5.19,5.19,0,1,0,5.12,5.18Z"/><path class="cls-2" d="M783.68,715.17a5.34,5.34,0,0,0-5.2-5.25,5.28,5.28,0,0,0-5.16,5.25,5.06,5.06,0,0,0,5.16,5.11A5.14,5.14,0,0,0,783.68,715.17Z"/><path class="cls-2" d="M825.84,680.7a7.34,7.34,0,0,0-14.68,0,7.34,7.34,0,1,0,14.68,0Z"/><path class="cls-2" d="M1084.85,712.32a7.24,7.24,0,0,0-7.27-7.29,7.38,7.38,0,0,0-7.37,7.36,7.32,7.32,0,0,0,14.64-.07Z"/><path class="cls-2" d="M1229.78,712a7.3,7.3,0,1,0-7.3,7.36A7.25,7.25,0,0,0,1229.78,712Z"/><path class="cls-2" d="M764.67,614.83a7.31,7.31,0,1,0-7.3,7.36A7.33,7.33,0,0,0,764.67,614.83Z"/><path class="cls-2" d="M1129.63,771a12.17,12.17,0,1,1-12.15,12.16A12.2,12.2,0,0,1,1129.63,771Zm0,22.23a10.07,10.07,0,1,0,0-20.13,10.07,10.07,0,1,0,0,20.13Z"/><path class="cls-2" d="M1280,766.47a12.21,12.21,0,1,1-12.19,12.17A12.31,12.31,0,0,1,1280,766.47Zm0,22.31a10.07,10.07,0,1,0-10.09-10.07A10.13,10.13,0,0,0,1280,788.78Z"/><path class="cls-2" d="M712.2,757.93A12.17,12.17,0,1,1,700,770.1,12.16,12.16,0,0,1,712.2,757.93Zm0,22.23a10.07,10.07,0,1,0,0-20.13,10,10,0,0,0-10.09,10.07A10.07,10.07,0,0,0,712.16,780.16Z"/><path class="cls-2" d="M1253.85,529.92a12.17,12.17,0,1,1-12.2,12.17A12.21,12.21,0,0,1,1253.85,529.92Zm.07,22.23a10.07,10.07,0,1,0-10.12-10.06A10,10,0,0,0,1253.92,552.15Z"/><path class="cls-2" d="M1167.77,466.92a12.13,12.13,0,1,1-12.16,12.17A12.15,12.15,0,0,1,1167.77,466.92Zm0,22.23a10.07,10.07,0,1,0-10.09-10.06A10.15,10.15,0,0,0,1167.81,489.15Z"/><path class="cls-2" d="M931.21,561.39A12.17,12.17,0,1,1,919,573.56,12.2,12.2,0,0,1,931.21,561.39Zm0,22.23a10.07,10.07,0,1,0,0-20.13,10.07,10.07,0,1,0,0,20.13Z"/><path class="cls-2" d="M897.56,506.3a12.17,12.17,0,1,1-12.19,12.17A12.2,12.2,0,0,1,897.56,506.3Zm0,22.23a10.07,10.07,0,1,0-10.09-10.06A10.15,10.15,0,0,0,897.6,528.53Z"/><path class="cls-2" d="M799.21,573.07a10.37,10.37,0,1,1,0,20.73,10.37,10.37,0,1,1,0-20.73Zm0,18.93a8.57,8.57,0,1,0-8.59-8.56A8.54,8.54,0,0,0,799.21,592Z"/><path class="cls-2" d="M778.52,704.7a10.4,10.4,0,1,1-10.43,10.43A10.51,10.51,0,0,1,778.52,704.7Zm0,19a8.6,8.6,0,1,0,0-17.2,8.76,8.76,0,0,0-8.62,8.63A8.63,8.63,0,0,0,778.52,723.7Z"/><path class="cls-2" d="M906.48,705.05a10.37,10.37,0,1,1-10.39,10.37A10.39,10.39,0,0,1,906.48,705.05Zm0,18.93a8.56,8.56,0,1,0-8.58-8.56A8.62,8.62,0,0,0,906.48,724Z"/><path class="cls-2" d="M1222.76,695.85a16.37,16.37,0,1,1-16.37,16.29A16.43,16.43,0,0,1,1222.76,695.85Zm0,29.89a13.56,13.56,0,1,0-13.55-13.52A13.67,13.67,0,0,0,1222.8,725.74Z"/><path class="cls-2" d="M1077.49,696a16.37,16.37,0,1,1-16.37,16.29A16.44,16.44,0,0,1,1077.49,696Zm0,29.89a13.56,13.56,0,1,0-13.59-13.52A13.61,13.61,0,0,0,1077.53,725.84Z"/><path class="cls-2" d="M818.16,664.4a16.37,16.37,0,1,1-16.37,16.37A16.43,16.43,0,0,1,818.16,664.4Zm0,29.89a13.56,13.56,0,1,0-13.59-13.59A13.64,13.64,0,0,0,818.16,694.29Z"/></g></g></svg>