<svg xmlns="http://www.w3.org/2000/svg" viewBox="0 0 79.09 77.31"><defs><style>.cls-1{fill:#fff;}</style></defs><title>Asset 1</title><g id="Layer_2" data-name="Layer 2"><g id="Layer_1-2" data-name="Layer 1"><path class="cls-1" d="M67.84,10.92a37.13,37.13,0,0,0-17.31-9.8l3.69,18.94a23.45,23.45,0,0,1,1.89,1.73,23.09,23.09,0,0,1,6.62,16.79,24.34,24.34,0,0,1-2.66,11.47c0,.07-.09.14-.13.22a23.22,23.22,0,0,1-3.83,5.21,22.14,22.14,0,0,1-16.52,6.78A22.08,22.08,0,0,1,23,55.48a23.16,23.16,0,0,1-3.8-5.21L19,49.94a24.64,24.64,0,0,1-2.57-11.36A23.22,23.22,0,0,1,23,21.79a24.09,24.09,0,0,1,1.83-1.69L28.52,1.29a38.18,38.18,0,0,0-17,9.9A37.41,37.41,0,0,0,0,38.9Q0,55.25,11.24,66.28t28,11q16.78,0,28.3-11.3A37.28,37.28,0,0,0,79.09,38.36q0-16.37-11.25-27.44"/><path class="cls-1" d="M39.55,15a5.72,5.72,0,0,1,2.57,10.84l2.31,11.84H34.66L37,25.81A5.72,5.72,0,0,1,39.55,15m15,30.69L45.63,0H33.46l-8.9,45.66Z"/></g></g></svg>